<svg xmlns="http://www.w3.org/2000/svg" width="1280" height="300" viewBox="0 0 1280 300" role="img" aria-labelledby="title desc">
  <title id="title">Skin Lesion Malignancy Study</title>
  <desc id="desc">Machine learning under extreme clinical class imbalance</desc>
  <defs>
    <linearGradient id="bg" x1="0" y1="0" x2="1" y2="1">
      <stop stop-color="#160B18"/>
      <stop offset=".55" stop-color="#261426"/>
      <stop offset="1" stop-color="#122030"/>
    </linearGradient>
    <linearGradient id="accent" x1="0" y1="0" x2="1" y2="0">
      <stop stop-color="#FB7185"/>
      <stop offset="1" stop-color="#22D3EE"/>
    </linearGradient>
    <pattern id="grid" width="30" height="30" patternUnits="userSpaceOnUse">
      <path d="M30 0H0V30" fill="none" stroke="#FBCFE8" stroke-opacity=".05"/>
    </pattern>
  </defs>
  <rect width="1280" height="300" rx="22" fill="url(#bg)"/>
  <rect width="1280" height="300" rx="22" fill="url(#grid)"/>
  <rect x="60" y="55" width="104" height="4" rx="2" fill="url(#accent)"/>
  <text x="60" y="116" fill="#F8FAFC" font-family="Segoe UI, Arial, sans-serif" font-size="42" font-weight="700">Skin Lesion Malignancy Study</text>
  <text x="60" y="160" fill="#D8C4D5" font-family="Segoe UI, Arial, sans-serif" font-size="21">Machine learning under extreme clinical class imbalance</text>
  <g transform="translate(60 207)">
    <rect width="165" height="38" rx="19" fill="#3A1726" stroke="#FB7185" stroke-opacity=".65"/>
    <text x="22" y="25" fill="#FFE4E6" font-family="Segoe UI, Arial, sans-serif" font-size="15">MEDICAL IMAGING</text>
    <rect x="179" width="184" height="38" rx="19" fill="#102D38" stroke="#22D3EE" stroke-opacity=".55"/>
    <text x="203" y="25" fill="#CFFAFE" font-family="Segoe UI, Arial, sans-serif" font-size="15">IMBALANCED LEARNING</text>
  </g>
  <g transform="translate(941 30)">
    <circle cx="135" cy="120" r="92" fill="#38192C" stroke="#FB7185" stroke-width="2" stroke-opacity=".65"/>
    <path d="M88 91c18-28 56-36 84-18 24 16 32 50 16 75-18 27-57 36-85 18-25-17-32-50-15-75Z" fill="#130D19" stroke="url(#accent)" stroke-width="3"/>
    <path d="M111 93c12-11 31-10 43 2 11 12 10 31-2 43-12 11-31 10-43-2-11-12-10-31 2-43Z" fill="#FB7185" fill-opacity=".22"/>
    <g fill="#22D3EE">
      <circle cx="83" cy="57" r="5"/>
      <circle cx="199" cy="75" r="4"/>
      <circle cx="64" cy="158" r="4"/>
      <circle cx="191" cy="179" r="6"/>
    </g>
    <g stroke="#22D3EE" stroke-opacity=".45">
      <path d="M83 57 111 93"/>
      <path d="m199 75-45 20"/>
      <path d="m64 158 45-22"/>
      <path d="m191 179-39-41"/>
    </g>
  </g>
</svg>
